<?xml version="1.0" encoding="UTF-8" standalone="no"?>
<svg version="1.1"
     width="300" height="200"
     xmlns="http://www.w3.org/2000/svg"
     viewBox="0 0 1190.6 878.7">
	<circle id="1" cx="191.32129" cy="485.94308" r="5" />
	<circle id="3" cx="229.62506" cy="454.87695" r="5" />
	<circle id="4" cx="666.58514" cy="424.90298" r="5" />
	<circle id="5" cx="685.56873" cy="408.16794" r="5" />
	<circle id="6" cx="185.74724" cy="324.1506" r="5" />
	<circle id="7" cx="41.45713" cy="131.45126" r="5" />
	<circle id="8" cx="592.12335" cy="350.67676" r="5" />
	<circle id="9" cx="553.62158" cy="236.69908" r="5" />
	<circle id="10" cx="655.0047" cy="171.60159" r="5" />
	<circle id="11" cx="628.08105" cy="269.18439" r="5" />
	<circle id="12" cx="428.73196" cy="366.69089" r="5" />
	<circle id="13" cx="433.22668" cy="364.69556" r="5" />
	<circle id="14" cx="436.00833" cy="675.65942" r="5" />
	<circle id="15" cx="608.13159" cy="431.64624" r="5" />
	<circle id="16" cx="587.64154" cy="385.17618" r="5" />
	<circle id="17" cx="887.07867" cy="333.66855" r="5" />
	<circle id="18" cx="876.71545" cy="214.92633" r="5" />
	<circle id="19" cx="310.77777" cy="487.15973" r="5" />
	<circle id="21" cx="352.27249" cy="396.69202" r="5" />
	<circle id="22" cx="909.12683" cy="314.19263" r="5" />
	<circle id="23" cx="506.6286" cy="285.19263" r="5" />
	<circle id="24" cx="653.12097" cy="501.61688" r="5" />
	<circle id="25" cx="719.0564" cy="368.67325" r="5" />
	<circle id="26" cx="557.16675" cy="490.33426" r="5" />
	<circle id="27" cx="730.06696" cy="229.6333" r="5" />
	<circle id="28" cx="427.99695" cy="406.67206" r="5" />
	<circle id="29" cx="567.17145" cy="544.55579" r="5" />
	<circle id="30" cx="149.27527" cy="502.70544" r="5" />
	<circle id="31" cx="654.02112" cy="183.61922" r="5" />
	<circle id="32" cx="782.03168" cy="375.16678" r="5" />
	<circle id="33" cx="449.82761" cy="228.97905" r="5" />
	<circle id="34" cx="498.24933" cy="648.91046" r="5" />
	<circle id="35" cx="811.01642" cy="375.17502" r="5" />
	<circle id="36" cx="358.74017" cy="294.70026" r="5" />
	<circle id="37" cx="337.75192" cy="294.21494" r="5" />
	<circle id="38" cx="828.1908" cy="151.30962" r="5" />
	<circle id="39" cx="413.37573" cy="192.53052" r="5" />
	<circle id="40" cx="603.58984" cy="293.6897" r="5" />
	<circle id="41" cx="614.08221" cy="303.69556" r="5" />
	<circle id="42" cx="533.63684" cy="297.20789" r="5" />
	<circle id="43" cx="521.14679" cy="310.70026" r="5" />
	<circle id="44" cx="767.55695" cy="494.60629" r="5" />
	<circle id="45" cx="590.40002" cy="456.6239" r="5" />
	<circle id="46" cx="664.55341" cy="310.66974" r="5" />
	<circle id="47" cx="331.4711" cy="197.24684" r="5" />
	<circle id="48" cx="98.46653" cy="129.47357" r="5" />
	<circle id="49" cx="516.63446" cy="296.70142" r="5" />
	<circle id="50" cx="556.90649" cy="417.39655" r="5" />
	<circle id="51" cx="503.19968" cy="467.12683" r="5" />
	<circle id="52" cx="62.426594" cy="118.36082" r="5" />
	<circle id="53" cx="850.94641" cy="178.13472" r="5" />
	<circle id="54" cx="202.90874" cy="495.17068" r="5" />
	<circle id="55" cx="132.49472" cy="141.50763" r="5" />
	<circle id="56" cx="561.91357" cy="410.91824" r="5" />
	<circle id="57" cx="453.47696" cy="658.62006" r="5" />
	<circle id="58" cx="464.12381" cy="646.56067" r="5" />
	<circle id="59" cx="444.36148" cy="667.02258" r="5" />
	<circle id="60" cx="654.48181" cy="133.02818" r="5" />
	<circle id="61" cx="421.36902" cy="200.405" r="5" />
	<circle id="62" cx="413.66187" cy="699.22009" r="5" />
	<circle id="63" cx="512.68732" cy="428.40121" r="5" />
	<circle id="64" cx="156.591" cy="149.52173" r="5" />
	<circle id="65" cx="932.6615" cy="291.20789" r="5" />
	<circle id="66" cx="920.64502" cy="303.70026" r="5" />
	<circle id="67" cx="663.08337" cy="302.67908" r="5" />
	<circle id="68" cx="826.92633" cy="129.50459" r="5" />
	<circle id="69" cx="351.20331" cy="251.59912" r="5" />
	<circle id="70" cx="186.10037" cy="462.65604" r="5" />
	<circle id="71" cx="170.61165" cy="439.22339" r="5" />
	<circle id="72" cx="344.27249" cy="491.15152" r="5" />
	<circle id="73" cx="260.86606" cy="430.64267" r="5" />
	<circle id="74" cx="553.49457" cy="207.10123" r="5" />
	<circle id="75" cx="878.04462" cy="344.66031" r="5" />
	<circle id="76" cx="338.35141" cy="588.63599" r="5" />
	<circle id="77" cx="161.15855" cy="220.1797" r="5" />
	<circle id="78" cx="463.0" cy="265.0" r="5" />
	<circle id="79" cx="362.29126" cy="349.22198" r="5" />
	<circle id="80" cx="379.27484" cy="363.70377" r="5" />
	<circle id="81" cx="519.96759" cy="591.77258" r="5" />
	<circle id="82" cx="948.61255" cy="274.07779" r="5" />
	<circle id="83" cx="524.42706" cy="507.82782" r="5" />
	<circle id="84" cx="826.84351" cy="106.74645" r="5" />
	<circle id="85" cx="515.91962" cy="345.49368" r="5" />
	<circle id="86" cx="491.30783" cy="358.056" r="5" />
	<circle id="87" cx="876.47778" cy="204.40836" r="5" />
	<circle id="88" cx="559.41296" cy="369.44583" r="5" />
	<circle id="90" cx="553.98663" cy="194.29286" r="5" />
	<circle id="91" cx="396.2337" cy="308.17853" r="5" />
	<circle id="92" cx="421.96567" cy="281.90625" r="5" />
	<circle id="93" cx="637.07166" cy="263.16913" r="5" />
	<circle id="94" cx="337.75058" cy="551.70874" r="5" />
	<circle id="95" cx="869.31635" cy="239.51379" r="5" />
	<circle id="96" cx="370.27484" cy="486.6474" r="5" />
	<circle id="97" cx="460.58325" cy="241.27278" r="5" />
	<circle id="98" cx="291.98489" cy="466.98911" r="5" />
	<circle id="99" cx="503.43176" cy="391.41882" r="5" />
	<circle id="100" cx="511.6427" cy="270.19144" r="5" />
	<circle id="101" cx="864.35229" cy="177.30292" r="5" />
	<circle id="102" cx="457.46933" cy="358.44702" r="5" />
	<circle id="103" cx="135.04765" cy="338.16064" r="5" />
	<circle id="104" cx="211.56564" cy="524.65271" r="5" />
	<circle id="105" cx="440.49164" cy="445.15387" r="5" />
	<circle id="106" cx="730.53815" cy="315.66855" r="5" />
	<circle id="107" cx="787.52527" cy="315.18088" r="5" />
	<circle id="108" cx="876.65271" cy="192.47112" r="5" />
	<circle id="109" cx="293.26926" cy="490.31274" r="5" />
	<circle id="110" cx="292.98489" cy="473.92297" r="5" />
	<circle id="111" cx="474.46106" cy="253.01837" r="5" />
	<circle id="112" cx="455.85352" cy="281.73804" r="5" />
	<circle id="113" cx="168.84932" cy="373.10123" r="5" />
	<circle id="114" cx="279.29535" cy="290.47696" r="5" />
	<circle id="115" cx="281.11746" cy="197.15385" r="5" />
	<circle id="116" cx="237.1656" cy="234.65327" r="5" />
	<circle id="117" cx="98.675285" cy="553.98242" r="5" />
	<circle id="118" cx="83.101234" cy="556.52051" r="5" />
	<circle id="119" cx="88.982407" cy="609.88367" r="5" />
	<circle id="120" cx="436.00583" cy="215.98241" r="5" />
	<circle id="121" cx="553.0" cy="136.0" r="5" />
	<circle id="122" cx="352.76486" cy="456.16208" r="5" />
	<circle id="123" cx="633.07281" cy="298.19614" r="5" />
	<circle id="124" cx="553.10455" cy="219.67795" r="5" />
	<circle id="125" cx="85.659149" cy="203.27837" r="5" />
	<circle id="126" cx="504.20319" cy="406.16443" r="5" />
	<circle id="127" cx="334.26544" cy="431.16794" r="5" />
	<circle id="128" cx="618.5816" cy="278.69202" r="5" />
	<circle id="129" cx="758.52991" cy="315.66855" r="5" />
	<circle id="130" cx="957.89618" cy="265.60916" r="5" />
	<circle id="131" cx="120.4669" cy="531.09454" r="5" />
	<circle id="132" cx="130.93552" cy="521.21002" r="5" />
	<circle id="133" cx="111.53636" cy="540.69202" r="5" />
	<circle id="134" cx="428.23959" cy="450.65915" r="5" />
	<circle id="135" cx="101.65328" cy="203.75075" r="5" />
	<circle id="136" cx="501.23019" cy="610.02234" r="5" />
	<circle id="137" cx="280.09369" cy="309.30206" r="5" />
	<circle id="138" cx="309.51962" cy="295.35812" r="5" />
	<circle id="139" cx="331.2619" cy="462.66736" r="5" />
	<circle id="140" cx="548.11865" cy="272.70731" r="5" />
	<circle id="141" cx="511.65091" cy="280.70731" r="5" />
	<circle id="142" cx="280.63596" cy="218.86357" r="5" />
	<circle id="143" cx="208.80664" cy="550.11462" r="5" />
	<circle id="144" cx="368.95227" cy="269.42422" r="5" />
	<circle id="145" cx="282.34412" cy="339.68146" r="5" />
	<circle id="146" cx="554.40497" cy="347.38156" r="5" />
	<circle id="147" cx="553.72052" cy="334.75949" r="5" />
	<circle id="148" cx="332.28281" cy="220.69203" r="5" />
	<circle id="149" cx="406.75311" cy="471.13977" r="5" />
	<circle id="150" cx="293.50287" cy="398.44766" r="5" />
	<circle id="151" cx="510.95819" cy="555.30023" r="5" />
	<circle id="152" cx="399.23843" cy="429.15387" r="5" />
	<circle id="153" cx="294.29126" cy="409.67325" r="5" />
	<circle id="154" cx="503.44116" cy="436.6474" r="5" />
	<circle id="155" cx="827.0094" cy="286.66971" r="5" />
	<circle id="156" cx="826.53113" cy="255.66618" r="5" />
	<circle id="157" cx="639.6051" cy="401.66736" r="5" />
	<circle id="158" cx="610.63568" cy="500.59338" r="5" />
	<circle id="159" cx="826.77155" cy="139.50459" r="5" />
	<circle id="160" cx="290.0108" cy="347.67526" r="5" />
	<circle id="161" cx="654.56635" cy="230.68851" r="5" />
	<circle id="162" cx="575.6615" cy="470.35425" r="5" />
	<circle id="163" cx="407.25485" cy="419.16092" r="5" />
	<circle id="164" cx="397.75894" cy="350.70963" r="5" />
	<circle id="165" cx="749.30408" cy="371.27847" r="5" />
	<circle id="166" cx="543.40588" cy="177.29622" r="5" />
	<circle id="167" cx="618.12451" cy="441.89594" r="5" />
	<circle id="168" cx="163.59807" cy="171.05638" r="5" />
	<circle id="169" cx="618.12097" cy="402.16443" r="5" />
	<circle id="170" cx="372.65186" cy="739.86359" r="5" />
	<circle id="171" cx="515.15973" cy="325.70026" r="5" />
	<circle id="172" cx="341.91293" cy="242.7146" r="5" />
	<circle id="173" cx="708.10333" cy="576.09985" r="5" />
	<circle id="174" cx="696.60626" cy="586.59216" r="5" />
	<circle id="175" cx="876.30292" cy="229.80081" r="5" />
	<circle id="177" cx="243.86606" cy="431.35898" r="5" />
	<circle id="178" cx="186.85602" cy="412.3389" r="5" />
	<circle id="179" cx="815.53815" cy="494.61685" r="5" />
	<circle id="180" cx="209.15738" cy="215.6568" r="5" />
	<circle id="181" cx="280.27277" cy="261.79745" r="5" />
	<circle id="182" cx="160.62508" cy="492.17737" r="5" />
	<circle id="184" cx="116.17318" cy="298.20667" r="5" />
	<circle id="185" cx="264.66931" cy="233.91933" r="5" />
	<circle id="186" cx="173.60042" cy="182.10689" r="5" />
	<circle id="187" cx="185.60982" cy="193.62979" r="5" />
	<circle id="188" cx="351.25955" cy="432.16092" r="5" />
	<circle id="189" cx="655" cy="147.0" r="5" />
	<circle id="190" cx="618.12213" cy="364.18204" r="5" />
	<circle id="191" cx="141.23259" cy="512.33551" r="5" />
	<circle id="192" cx="489.98166" cy="621.03052" r="5" />
	<circle id="193" cx="461.46933" cy="411.16443" r="5" />
	<circle id="194" cx="338.80832" cy="350.73547" r="5" />
	<circle id="195" cx="345.79773" cy="357.21494" r="5" />
	<circle id="196" cx="186.85266" cy="374.27277" r="5" />
	<circle id="197" cx="337.28531" cy="561.70544" r="5" />
	<circle id="198" cx="153.04095" cy="357.27948" r="5" />
	<circle id="199" cx="481.45758" cy="444.6427" r="5" />
	<circle id="200" cx="440.50809" cy="537.10571" r="5" />
	<circle id="201" cx="197.64153" cy="206.14095" r="5" />
	<circle id="202" cx="852.01642" cy="370.15857" r="5" />
	<circle id="203" cx="300.65796" cy="234.05367" r="5" />
	<circle id="204" cx="337.46689" cy="569.81757" r="5" />
	<circle id="205" cx="280.31458" cy="318.01834" r="5" />
	<circle id="206" cx="331.11127" cy="209.05521" r="5" />
	<circle id="207" cx="378.24313" cy="432.15622" r="5" />
	<circle id="208" cx="275.04095" cy="495.46442" r="5" />
	<circle id="209" cx="171.685" cy="230.17265" r="5" />
	<circle id="210" cx="854.28973" cy="239.37404" r="5" />
	<circle id="211" cx="447.72614" cy="387.16443" r="5" />
	<circle id="213" cx="213.29201" cy="577.69537" r="5" />
	<circle id="214" cx="147.05051" cy="157.03641" r="5" />
	<circle id="215" cx="837.02258" cy="177.60333" r="5" />
	<circle id="216" cx="695.58868" cy="489.62155" r="5" />
	<circle id="217" cx="309.323" cy="372.19614" r="5" />
	<circle id="218" cx="129.15503" cy="202.21846" r="5" />
	<circle id="219" cx="115.68968" cy="238.71201" r="5" />
	<circle id="220" cx="149.6474" cy="207.20554" r="5" />
	<circle id="221" cx="532.41412" cy="398.15268" r="5" />
	<circle id="222" cx="460.73196" cy="494.11981" r="5" />
	<circle id="223" cx="687.06226" cy="235.13977" r="5" />
	<circle id="224" cx="696.08105" cy="457.12448" r="5" />
	<circle id="225" cx="318.76132" cy="431.6756" r="5" />
	<circle id="226" cx="292.2807" cy="453.64621" r="5" />
	<circle id="227" cx="415.25015" cy="494.14447" r="5" />
	<circle id="228" cx="827.09204" cy="218.21336" r="5" />
	<circle id="229" cx="229.15979" cy="469.22342" r="5" />
	<circle id="230" cx="169.39075" cy="486.35229" r="5" />
	<circle id="231" cx="187.19966" cy="257.17734" r="5" />
	<circle id="232" cx="384.25955" cy="493.63919" r="5" />
	<circle id="233" cx="279.98239" cy="252.21671" r="5" />
	<circle id="234" cx="116.7073" cy="269.18909" r="5" />
	<circle id="235" cx="398.25269" cy="714.63599" r="5" />
	<circle id="236" cx="826.6167" cy="205.57655" r="5" />
	<circle id="237" cx="337.99493" cy="601.73804" r="5" />
	<circle id="238" cx="655.0141" cy="159.56049" r="5" />
	<circle id="239" cx="533.19495" cy="535.05756" r="5" />
	<circle id="240" cx="429" cy="345" r="5" />
	<circle id="241" cx="581" cy="431" r="5" />
	<circle id="242" cx="247.32799" cy="495.2301" r="5" />
	<circle id="243" cx="330.65271" cy="183.96317" r="5" />
	<circle id="244" cx="715.07513" cy="380.67795" r="5" />
	<circle id="245" cx="480.48029" cy="630.79834" r="5" />
	<circle id="246" cx="279.78073" cy="281.24933" r="5" />
	<circle id="247" cx="832.50647" cy="316.18793" r="5" />
	<circle id="249" cx="186.72726" cy="279.17734" r="5" />
	<circle id="250" cx="186.99493" cy="301.86023" r="5" />
	<circle id="251" cx="695.5957" cy="540.08691" r="5" />
	<circle id="252" cx="428.70496" cy="336.15622" r="5" />
	<circle id="253" cx="523.69202" cy="491.58398" r="5" />
	<circle id="254" cx="827.08783" cy="119.01339" r="5" />
	<circle id="255" cx="431.59912" cy="680.70874" r="5" />
	<circle id="256" cx="426.30875" cy="686.69873" r="5" />
	<circle id="257" cx="500.69086" cy="408.91354" r="5" />
	<circle id="259" cx="707.06342" cy="236.11862" r="5" />
	<circle id="260" cx="553.54993" cy="148.08221" r="5" />
	<circle id="261" cx="649.10333" cy="449.63684" r="5" />
	<circle id="262" cx="554.47449" cy="258.31546" r="5" />
	<circle id="263" cx="225.32129" cy="494.93637" r="5" />
	<circle id="264" cx="654.05518" cy="210.14447" r="5" />
	<circle id="265" cx="979.11713" cy="244.3121" r="5" />
	<circle id="266" cx="968.12384" cy="255.43428" r="5" />
	<circle id="267" cx="899.5957" cy="324.18793" r="5" />
	<circle id="268" cx="864.03052" cy="356.66031" r="5" />
	<circle id="269" cx="62.144466" cy="201.80244" r="5" />
	<circle id="270" cx="446.51514" cy="596.54639" r="5" />
	<circle id="271" cx="435.24548" cy="494.13037" r="5" />
	<circle id="272" cx="767.0722" cy="234.75407" r="5" />
	<circle id="273" cx="840.62347" cy="239.68869" r="5" />
	<circle id="274" cx="696.08221" cy="467.13507" r="5" />
	<circle id="275" cx="503.42587" cy="369.43176" r="5" />
	<circle id="276" cx="302.83768" cy="352.2067" r="5" />
	<circle id="277" cx="500.21964" cy="524.07281" r="5" />
	<circle id="278" cx="156.13037" cy="135.0047" r="5" />
	<circle id="279" cx="281.03177" cy="271.49036" r="5" />
	<circle id="280" cx="327.04517" cy="246.79076" r="5" />
	<circle id="281" cx="205.9782" cy="431.46777" r="5" />
	<circle id="282" cx="335.63174" cy="525.646" r="5" />
	<circle id="283" cx="553.68951" cy="168.17404" r="5" />
	<circle id="284" cx="831.50336" cy="376.2944" r="5" />
	<circle id="285" cx="400.71082" cy="282.70728" r="5" />
	<circle id="286" cx="401.21021" cy="280.71082" r="5" />
	<circle id="289" cx="208.24303" cy="234.83281" r="5" />
	<circle id="290" cx="345.2525" cy="496.14798" r="5" />
	<circle id="291" cx="114.14799" cy="185.24547" r="5" />
	<circle id="292" cx="298.81299" cy="382.67795" r="5" />
	<circle id="293" cx="481.97226" cy="486.6239" r="5" />
	<circle id="294" cx="283.97818" cy="432.164" r="5" />
	<circle id="295" cx="696.57581" cy="399.16446" r="5" />
	<circle id="296" cx="360.37152" cy="260.18658" r="5" />
	<circle id="298" cx="281.39972" cy="299.22961" r="5" />
	<circle id="299" cx="337.8761" cy="624.65521" r="5" />
	<circle id="300" cx="337.34137" cy="612.90289" r="5" />
	<circle id="301" cx="654.54407" cy="197.63683" r="5" />
	<circle id="302" cx="826.84772" cy="194.77153" r="5" />
	<circle id="303" cx="553.36975" cy="158.08456" r="5" />
	</svg>